<svg width="64" height="64" viewBox="0 0 64 64" fill="none" xmlns="http://www.w3.org/2000/svg">
<g clip-path="url(#clip0_4_2)">
<path d="M4.8 22.2193C4.8 21.1593 3.90457 20.3 2.8 20.3C1.69543 20.3 0.800003 21.1593 0.800003 22.2193V61.1807C0.800003 62.2407 1.69543 63.1 2.8 63.1C3.90457 63.1 4.8 62.2407 4.8 61.1807V22.2193Z" fill="#09090B"/>
<path d="M43 22.9091C43 21.8547 42.1046 21 41 21C39.8954 21 39 21.8547 39 22.9091V61.0909C39 62.1453 39.8954 63 41 63C42.1046 63 43 62.1453 43 61.0909V22.9091Z" fill="#09090B"/>
<path d="M63.2 2.91964C63.2 1.85945 62.3046 1 61.2 1C60.0954 1 59.2 1.85945 59.2 2.91964V42.0804C59.2 43.1405 60.0954 44 61.2 44C62.3046 44 63.2 43.1405 63.2 42.0804V2.91964Z" fill="#09090B"/>
<path d="M2.93258 60.2C1.86525 60.2 1 60.8716 1 61.7C1 62.5284 1.86525 63.2 2.93258 63.2H42.0674C43.1348 63.2 44 62.5284 44 61.7C44 60.8716 43.1348 60.2 42.0674 60.2H2.93258Z" fill="#09090B"/>
<path d="M2.90909 21C1.85473 21 1 21.8954 1 23C1 24.1046 1.85473 25 2.90909 25L41.0909 25C42.1453 25 43 24.1046 43 23C43 21.8954 42.1453 21 41.0909 21L2.90909 21Z" fill="#09090B"/>
<path d="M4 23L4 61H41V23H4Z" fill="#09090B"/>
<path d="M21.9343 1C20.866 1 20 1.89543 20 3C20 4.10457 20.866 5 21.9343 5L61.0657 5C62.134 5 63 4.10457 63 3C63 1.89543 62.134 1 61.0657 1L21.9343 1Z" fill="#09090B"/>
<path d="M1.3189 20.838C0.57535 21.5794 0.583134 22.7893 1.33629 23.5402C2.08944 24.2912 3.30277 24.299 4.04632 23.5576L23.1641 4.49511C23.9076 3.75371 23.8999 2.54389 23.1467 1.79292C22.3936 1.04194 21.1802 1.03418 20.4367 1.77558L1.3189 20.838Z" fill="#09090B"/>
<path d="M41.0058 59.9511C40.2695 60.6853 40.2831 61.8893 41.0363 62.6402C41.7894 63.3912 42.9969 63.4048 43.7332 62.6706L62.6648 43.7939C63.4011 43.0597 63.3874 41.8557 62.6343 41.1047C61.8811 40.3538 60.6737 40.3402 59.9374 41.0743L41.0058 59.9511Z" fill="#09090B"/>
<path d="M39.8692 21.5307C39.0819 22.3157 39.0542 23.5608 39.8074 24.3118C40.5606 25.0628 41.8093 25.0352 42.5966 24.2502L62.5535 4.35111C63.3407 3.56611 63.3684 2.32096 62.6152 1.56998C61.8621 0.819003 60.6133 0.846583 59.826 1.63158L39.8692 21.5307Z" fill="#09090B"/>
</g>
<defs>
<clipPath id="clip0_4_2">
<rect width="64" height="64" fill="white"/>
</clipPath>
</defs>
</svg>
