<svg width="507" height="187" viewBox="0 0 507 187" fill="none" xmlns="http://www.w3.org/2000/svg">
<rect opacity="0.3" x="72" y="115" width="363" height="72" rx="24" fill="#F3F4F6"/>
<rect opacity="0.4" x="96" y="136" width="31" height="32" rx="15.5" fill="#4F46E5"/>
<path opacity="0.4" d="M149.719 143.254H147.86C147.807 142.949 147.709 142.679 147.567 142.443C147.424 142.205 147.247 142.002 147.035 141.837C146.823 141.671 146.581 141.547 146.309 141.464C146.04 141.378 145.75 141.335 145.439 141.335C144.885 141.335 144.395 141.474 143.967 141.752C143.54 142.027 143.205 142.432 142.963 142.965C142.721 143.496 142.6 144.143 142.6 144.909C142.6 145.688 142.721 146.344 142.963 146.878C143.208 147.408 143.543 147.809 143.967 148.081C144.395 148.349 144.884 148.484 145.434 148.484C145.739 148.484 146.024 148.444 146.289 148.364C146.558 148.281 146.798 148.161 147.01 148.001C147.225 147.842 147.406 147.647 147.552 147.415C147.701 147.183 147.804 146.918 147.86 146.619L149.719 146.629C149.65 147.113 149.499 147.567 149.267 147.991C149.038 148.416 148.738 148.79 148.367 149.115C147.996 149.437 147.562 149.688 147.065 149.871C146.567 150.05 146.016 150.139 145.409 150.139C144.514 150.139 143.715 149.932 143.013 149.518C142.31 149.103 141.757 148.505 141.352 147.723C140.948 146.941 140.746 146.003 140.746 144.909C140.746 143.812 140.95 142.874 141.357 142.095C141.765 141.313 142.32 140.715 143.023 140.3C143.725 139.886 144.521 139.679 145.409 139.679C145.976 139.679 146.503 139.759 146.99 139.918C147.477 140.077 147.911 140.31 148.293 140.619C148.674 140.924 148.987 141.298 149.232 141.742C149.481 142.183 149.643 142.687 149.719 143.254ZM153.129 145.526V150H151.329V139.818H153.089V143.661H153.178C153.357 143.23 153.634 142.891 154.009 142.642C154.387 142.39 154.867 142.264 155.45 142.264C155.981 142.264 156.443 142.375 156.838 142.597C157.232 142.819 157.537 143.144 157.752 143.572C157.971 143.999 158.08 144.521 158.08 145.138V150H156.281V145.416C156.281 144.902 156.148 144.503 155.883 144.218C155.621 143.93 155.253 143.786 154.779 143.786C154.461 143.786 154.176 143.855 153.924 143.994C153.676 144.13 153.48 144.327 153.338 144.586C153.198 144.844 153.129 145.158 153.129 145.526ZM162.112 150.154C161.628 150.154 161.193 150.068 160.805 149.896C160.42 149.72 160.115 149.461 159.89 149.12C159.668 148.779 159.557 148.358 159.557 147.857C159.557 147.426 159.637 147.07 159.796 146.788C159.955 146.507 160.172 146.281 160.447 146.112C160.722 145.943 161.032 145.816 161.377 145.729C161.725 145.64 162.084 145.575 162.455 145.536C162.903 145.489 163.266 145.448 163.544 145.411C163.823 145.371 164.025 145.312 164.151 145.232C164.28 145.149 164.345 145.022 164.345 144.849V144.82C164.345 144.445 164.234 144.155 164.012 143.95C163.789 143.744 163.47 143.641 163.052 143.641C162.611 143.641 162.262 143.737 162.003 143.93C161.748 144.122 161.575 144.349 161.486 144.611L159.806 144.372C159.938 143.908 160.157 143.52 160.462 143.209C160.767 142.894 161.14 142.659 161.58 142.503C162.021 142.344 162.508 142.264 163.042 142.264C163.41 142.264 163.776 142.307 164.141 142.393C164.505 142.48 164.838 142.622 165.14 142.821C165.442 143.017 165.684 143.283 165.866 143.621C166.052 143.96 166.144 144.382 166.144 144.889V150H164.414V148.951H164.355C164.245 149.163 164.091 149.362 163.892 149.548C163.697 149.73 163.45 149.877 163.151 149.99C162.856 150.099 162.51 150.154 162.112 150.154ZM162.58 148.832C162.941 148.832 163.254 148.76 163.519 148.618C163.785 148.472 163.988 148.28 164.131 148.041C164.277 147.803 164.35 147.542 164.35 147.261V146.361C164.293 146.407 164.197 146.45 164.061 146.49C163.929 146.53 163.78 146.565 163.614 146.594C163.448 146.624 163.284 146.651 163.122 146.674C162.959 146.697 162.818 146.717 162.699 146.734C162.431 146.77 162.19 146.83 161.978 146.913C161.766 146.996 161.599 147.112 161.476 147.261C161.353 147.406 161.292 147.595 161.292 147.827C161.292 148.159 161.413 148.409 161.655 148.578C161.897 148.747 162.205 148.832 162.58 148.832ZM167.954 150V142.364H169.699V143.636H169.779C169.918 143.196 170.156 142.856 170.494 142.617C170.836 142.375 171.225 142.254 171.663 142.254C171.762 142.254 171.873 142.259 171.996 142.269C172.122 142.276 172.226 142.287 172.309 142.304V143.96C172.233 143.933 172.112 143.91 171.946 143.89C171.784 143.867 171.626 143.855 171.474 143.855C171.146 143.855 170.851 143.926 170.589 144.069C170.33 144.208 170.127 144.402 169.977 144.651C169.828 144.899 169.754 145.186 169.754 145.511V150H167.954ZM175.305 139.818V150H173.505V139.818H175.305ZM180.486 150.149C179.74 150.149 179.094 149.985 178.547 149.657C178 149.329 177.576 148.87 177.275 148.28C176.976 147.69 176.827 147 176.827 146.212C176.827 145.423 176.976 144.732 177.275 144.138C177.576 143.545 178 143.085 178.547 142.756C179.094 142.428 179.74 142.264 180.486 142.264C181.232 142.264 181.878 142.428 182.425 142.756C182.972 143.085 183.395 143.545 183.693 144.138C183.994 144.732 184.145 145.423 184.145 146.212C184.145 147 183.994 147.69 183.693 148.28C183.395 148.87 182.972 149.329 182.425 149.657C181.878 149.985 181.232 150.149 180.486 150.149ZM180.496 148.707C180.9 148.707 181.239 148.596 181.51 148.374C181.782 148.149 181.984 147.847 182.117 147.469C182.253 147.092 182.321 146.671 182.321 146.207C182.321 145.739 182.253 145.317 182.117 144.939C181.984 144.558 181.782 144.254 181.51 144.029C181.239 143.804 180.9 143.691 180.496 143.691C180.082 143.691 179.737 143.804 179.462 144.029C179.19 144.254 178.986 144.558 178.85 144.939C178.718 145.317 178.652 145.739 178.652 146.207C178.652 146.671 178.718 147.092 178.85 147.469C178.986 147.847 179.19 148.149 179.462 148.374C179.737 148.596 180.082 148.707 180.496 148.707ZM189.486 142.364V143.756H185.096V142.364H189.486ZM186.18 140.534H187.98V147.703C187.98 147.945 188.016 148.131 188.089 148.26C188.165 148.386 188.265 148.472 188.387 148.518C188.51 148.565 188.646 148.588 188.795 148.588C188.908 148.588 189.01 148.58 189.103 148.563C189.199 148.547 189.272 148.532 189.322 148.518L189.625 149.925C189.529 149.959 189.392 149.995 189.213 150.035C189.037 150.075 188.821 150.098 188.566 150.104C188.115 150.118 187.709 150.05 187.348 149.901C186.987 149.748 186.7 149.513 186.488 149.195C186.279 148.876 186.177 148.479 186.18 148.001V140.534ZM194.804 142.364V143.756H190.414V142.364H194.804ZM191.498 140.534H193.298V147.703C193.298 147.945 193.334 148.131 193.407 148.26C193.484 148.386 193.583 148.472 193.706 148.518C193.828 148.565 193.964 148.588 194.113 148.588C194.226 148.588 194.329 148.58 194.422 148.563C194.518 148.547 194.591 148.532 194.64 148.518L194.944 149.925C194.847 149.959 194.71 149.995 194.531 150.035C194.355 150.075 194.14 150.098 193.885 150.104C193.434 150.118 193.028 150.05 192.667 149.901C192.305 149.748 192.019 149.513 191.806 149.195C191.598 148.876 191.495 148.479 191.498 148.001V140.534ZM199.608 150.149C198.843 150.149 198.181 149.99 197.624 149.672C197.071 149.35 196.645 148.896 196.347 148.31C196.048 147.72 195.899 147.025 195.899 146.227C195.899 145.441 196.048 144.752 196.347 144.158C196.648 143.562 197.069 143.098 197.61 142.766C198.15 142.432 198.785 142.264 199.514 142.264C199.984 142.264 200.428 142.34 200.846 142.493C201.267 142.642 201.638 142.874 201.96 143.189C202.285 143.504 202.54 143.905 202.725 144.392C202.911 144.876 203.004 145.453 203.004 146.122V146.674H196.744V145.461H201.279C201.275 145.116 201.201 144.81 201.055 144.541C200.909 144.269 200.705 144.056 200.443 143.9C200.185 143.744 199.883 143.666 199.539 143.666C199.171 143.666 198.847 143.756 198.569 143.935C198.291 144.11 198.074 144.342 197.918 144.631C197.765 144.916 197.687 145.229 197.684 145.57V146.629C197.684 147.073 197.765 147.455 197.928 147.773C198.09 148.088 198.317 148.33 198.609 148.499C198.901 148.664 199.242 148.747 199.633 148.747C199.895 148.747 200.132 148.711 200.344 148.638C200.556 148.562 200.74 148.451 200.896 148.305C201.052 148.159 201.169 147.978 201.249 147.763L202.929 147.952C202.823 148.396 202.621 148.784 202.323 149.115C202.028 149.443 201.65 149.698 201.189 149.881C200.728 150.06 200.201 150.149 199.608 150.149Z" fill="#18181B"/>
<path opacity="0.4" d="M117.108 149.29H114.983C114.922 148.941 114.811 148.633 114.648 148.364C114.485 148.091 114.282 147.86 114.04 147.67C113.797 147.481 113.521 147.339 113.21 147.244C112.903 147.146 112.572 147.097 112.216 147.097C111.583 147.097 111.023 147.256 110.534 147.574C110.045 147.888 109.663 148.35 109.386 148.96C109.11 149.566 108.972 150.307 108.972 151.182C108.972 152.072 109.11 152.822 109.386 153.432C109.667 154.038 110.049 154.496 110.534 154.807C111.023 155.114 111.581 155.267 112.21 155.267C112.559 155.267 112.884 155.222 113.188 155.131C113.494 155.036 113.769 154.898 114.011 154.716C114.258 154.534 114.464 154.311 114.631 154.045C114.801 153.78 114.919 153.477 114.983 153.136L117.108 153.148C117.028 153.701 116.856 154.22 116.591 154.705C116.33 155.189 115.987 155.617 115.562 155.989C115.138 156.356 114.642 156.644 114.074 156.852C113.506 157.057 112.875 157.159 112.182 157.159C111.159 157.159 110.246 156.922 109.443 156.449C108.64 155.975 108.008 155.292 107.545 154.398C107.083 153.504 106.852 152.432 106.852 151.182C106.852 149.928 107.085 148.856 107.551 147.966C108.017 147.072 108.652 146.388 109.455 145.915C110.258 145.441 111.167 145.205 112.182 145.205C112.83 145.205 113.432 145.295 113.989 145.477C114.545 145.659 115.042 145.926 115.477 146.278C115.913 146.627 116.271 147.055 116.551 147.562C116.835 148.066 117.021 148.642 117.108 149.29Z" fill="white"/>
<path opacity="0.4" d="M140.746 162.455C140.746 161.828 140.827 161.252 140.989 160.727C141.153 160.2 141.387 159.715 141.69 159.273H142.207C142.088 159.437 141.976 159.639 141.872 159.879C141.769 160.118 141.679 160.381 141.601 160.667C141.523 160.952 141.462 161.247 141.417 161.552C141.374 161.857 141.352 162.158 141.352 162.455C141.352 162.849 141.39 163.249 141.467 163.655C141.543 164.061 141.646 164.438 141.775 164.786C141.904 165.134 142.048 165.418 142.207 165.636H141.69C141.387 165.194 141.153 164.71 140.989 164.185C140.827 163.658 140.746 163.081 140.746 162.455ZM144.783 165.07C144.455 165.07 144.163 165.013 143.906 164.901C143.651 164.788 143.448 164.631 143.297 164.431C143.148 164.229 143.066 163.994 143.053 163.727H143.68C143.693 163.891 143.749 164.033 143.849 164.152C143.948 164.27 144.078 164.361 144.239 164.426C144.4 164.49 144.578 164.523 144.773 164.523C144.992 164.523 145.186 164.485 145.355 164.408C145.524 164.332 145.657 164.226 145.753 164.09C145.849 163.954 145.897 163.797 145.897 163.618C145.897 163.431 145.851 163.266 145.758 163.123C145.665 162.979 145.529 162.866 145.35 162.785C145.171 162.704 144.952 162.663 144.694 162.663H144.286V162.116H144.694C144.896 162.116 145.073 162.08 145.226 162.007C145.38 161.934 145.5 161.831 145.586 161.699C145.674 161.566 145.718 161.411 145.718 161.232C145.718 161.059 145.68 160.909 145.604 160.782C145.527 160.654 145.42 160.555 145.28 160.483C145.143 160.412 144.98 160.376 144.793 160.376C144.618 160.376 144.452 160.409 144.296 160.473C144.142 160.536 144.016 160.628 143.918 160.749C143.82 160.869 143.767 161.013 143.759 161.182H143.163C143.172 160.915 143.253 160.681 143.404 160.481C143.554 160.279 143.752 160.121 143.995 160.009C144.241 159.896 144.51 159.839 144.803 159.839C145.118 159.839 145.388 159.903 145.614 160.031C145.839 160.157 146.012 160.323 146.133 160.531C146.254 160.738 146.315 160.961 146.315 161.202C146.315 161.488 146.239 161.733 146.088 161.935C145.939 162.137 145.736 162.277 145.479 162.355V162.395C145.801 162.448 146.052 162.585 146.233 162.805C146.413 163.024 146.503 163.295 146.503 163.618C146.503 163.895 146.428 164.143 146.277 164.364C146.128 164.582 145.924 164.755 145.666 164.881C145.407 165.007 145.113 165.07 144.783 165.07ZM149.31 159.909V165H148.693V160.555H148.664L147.421 161.381V160.754L148.693 159.909H149.31ZM152.435 165.07C152.06 165.07 151.741 164.968 151.478 164.764C151.214 164.558 151.013 164.261 150.873 163.871C150.734 163.48 150.665 163.008 150.665 162.455C150.665 161.904 150.734 161.435 150.873 161.045C151.014 160.654 151.217 160.356 151.48 160.15C151.745 159.943 152.063 159.839 152.435 159.839C152.806 159.839 153.123 159.943 153.387 160.15C153.652 160.356 153.854 160.654 153.993 161.045C154.134 161.435 154.204 161.904 154.204 162.455C154.204 163.008 154.135 163.48 153.996 163.871C153.856 164.261 153.655 164.558 153.392 164.764C153.128 164.968 152.809 165.07 152.435 165.07ZM152.435 164.523C152.806 164.523 153.094 164.344 153.3 163.986C153.505 163.628 153.608 163.117 153.608 162.455C153.608 162.014 153.561 161.638 153.466 161.328C153.373 161.019 153.239 160.782 153.063 160.62C152.889 160.458 152.68 160.376 152.435 160.376C152.067 160.376 151.779 160.558 151.572 160.921C151.365 161.282 151.261 161.793 151.261 162.455C151.261 162.895 151.308 163.27 151.4 163.578C151.493 163.886 151.627 164.121 151.801 164.282C151.976 164.442 152.188 164.523 152.435 164.523ZM156.412 162.455C156.412 163.081 156.33 163.658 156.166 164.185C156.003 164.71 155.771 165.194 155.467 165.636H154.95C155.07 165.472 155.181 165.27 155.283 165.03C155.388 164.791 155.479 164.529 155.557 164.244C155.635 163.958 155.695 163.662 155.738 163.357C155.783 163.05 155.805 162.75 155.805 162.455C155.805 162.06 155.767 161.66 155.691 161.254C155.615 160.848 155.512 160.471 155.383 160.123C155.253 159.775 155.109 159.491 154.95 159.273H155.467C155.771 159.715 156.003 160.2 156.166 160.727C156.33 161.252 156.412 161.828 156.412 162.455ZM159.883 162.181V162.728H157.655V162.181H159.883ZM160.666 165V164.553L162.346 162.713C162.543 162.498 162.706 162.31 162.833 162.151C162.961 161.991 163.055 161.84 163.117 161.699C163.18 161.556 163.211 161.407 163.211 161.251C163.211 161.072 163.168 160.917 163.082 160.787C162.997 160.656 162.881 160.555 162.734 160.483C162.586 160.412 162.421 160.376 162.237 160.376C162.041 160.376 161.87 160.417 161.725 160.498C161.58 160.578 161.469 160.69 161.389 160.834C161.311 160.978 161.272 161.147 161.272 161.341H160.686C160.686 161.043 160.754 160.781 160.892 160.555C161.029 160.33 161.217 160.154 161.454 160.028C161.692 159.902 161.96 159.839 162.257 159.839C162.555 159.839 162.819 159.902 163.05 160.028C163.28 160.154 163.461 160.324 163.591 160.538C163.722 160.752 163.788 160.99 163.788 161.251C163.788 161.439 163.754 161.622 163.686 161.801C163.62 161.978 163.504 162.176 163.338 162.395C163.174 162.612 162.946 162.877 162.654 163.19L161.511 164.413V164.453H163.877V165H160.666ZM166.535 165.07C166.193 165.07 165.892 165.009 165.63 164.888C165.37 164.766 165.167 164.597 165.021 164.384C164.875 164.168 164.803 163.923 164.805 163.648C164.803 163.432 164.845 163.233 164.931 163.051C165.017 162.867 165.135 162.714 165.284 162.591C165.435 162.467 165.603 162.388 165.789 162.355V162.325C165.545 162.262 165.351 162.126 165.207 161.915C165.063 161.703 164.992 161.462 164.993 161.192C164.992 160.933 165.057 160.702 165.19 160.498C165.322 160.294 165.505 160.134 165.737 160.016C165.97 159.898 166.236 159.839 166.535 159.839C166.83 159.839 167.093 159.898 167.325 160.016C167.557 160.134 167.739 160.294 167.872 160.498C168.006 160.702 168.074 160.933 168.076 161.192C168.074 161.462 168 161.703 167.855 161.915C167.71 162.126 167.519 162.262 167.28 162.325V162.355C167.464 162.388 167.63 162.467 167.778 162.591C167.925 162.714 168.043 162.867 168.131 163.051C168.218 163.233 168.263 163.432 168.265 163.648C168.263 163.923 168.189 164.168 168.041 164.384C167.895 164.597 167.692 164.766 167.432 164.888C167.173 165.009 166.874 165.07 166.535 165.07ZM166.535 164.523C166.765 164.523 166.964 164.485 167.131 164.411C167.299 164.336 167.428 164.231 167.519 164.095C167.61 163.959 167.657 163.8 167.658 163.618C167.657 163.426 167.607 163.256 167.509 163.108C167.411 162.961 167.278 162.845 167.109 162.76C166.941 162.676 166.75 162.634 166.535 162.634C166.318 162.634 166.124 162.676 165.953 162.76C165.784 162.845 165.651 162.961 165.553 163.108C165.457 163.256 165.409 163.426 165.411 163.618C165.409 163.8 165.453 163.959 165.543 164.095C165.634 164.231 165.764 164.336 165.933 164.411C166.102 164.485 166.303 164.523 166.535 164.523ZM166.535 162.107C166.717 162.107 166.878 162.07 167.019 161.997C167.162 161.924 167.274 161.822 167.355 161.691C167.436 161.56 167.478 161.407 167.479 161.232C167.478 161.059 167.437 160.909 167.357 160.782C167.278 160.652 167.168 160.553 167.027 160.483C166.886 160.412 166.722 160.376 166.535 160.376C166.344 160.376 166.177 160.412 166.035 160.483C165.892 160.553 165.782 160.652 165.704 160.782C165.626 160.909 165.588 161.059 165.59 161.232C165.588 161.407 165.627 161.56 165.707 161.691C165.788 161.822 165.9 161.924 166.042 161.997C166.185 162.07 166.349 162.107 166.535 162.107ZM170.808 165.07C170.517 165.07 170.254 165.012 170.02 164.896C169.787 164.78 169.599 164.621 169.459 164.418C169.318 164.216 169.241 163.986 169.227 163.727H169.824C169.847 163.958 169.952 164.148 170.137 164.299C170.324 164.448 170.548 164.523 170.808 164.523C171.017 164.523 171.203 164.474 171.365 164.376C171.529 164.278 171.658 164.144 171.75 163.973C171.845 163.801 171.892 163.606 171.892 163.389C171.892 163.167 171.843 162.969 171.745 162.795C171.649 162.619 171.517 162.481 171.348 162.38C171.179 162.279 170.986 162.228 170.769 162.226C170.613 162.224 170.453 162.248 170.289 162.298C170.125 162.346 169.99 162.408 169.884 162.484L169.307 162.415L169.615 159.909H172.26V160.456H170.132L169.953 161.957H169.983C170.087 161.875 170.218 161.806 170.376 161.751C170.533 161.696 170.697 161.669 170.868 161.669C171.18 161.669 171.457 161.744 171.701 161.893C171.946 162.04 172.138 162.242 172.277 162.499C172.418 162.756 172.489 163.049 172.489 163.379C172.489 163.704 172.416 163.994 172.27 164.249C172.126 164.503 171.927 164.703 171.673 164.851C171.42 164.997 171.131 165.07 170.808 165.07ZM175.674 162.181V162.728H173.446V162.181H175.674ZM178.334 165.07C178.006 165.07 177.713 165.013 177.457 164.901C177.201 164.788 176.998 164.631 176.848 164.431C176.698 164.229 176.617 163.994 176.604 163.727H177.23C177.244 163.891 177.3 164.033 177.399 164.152C177.499 164.27 177.629 164.361 177.79 164.426C177.95 164.49 178.129 164.523 178.324 164.523C178.543 164.523 178.737 164.485 178.906 164.408C179.075 164.332 179.207 164.226 179.304 164.09C179.4 163.954 179.448 163.797 179.448 163.618C179.448 163.431 179.401 163.266 179.309 163.123C179.216 162.979 179.08 162.866 178.901 162.785C178.722 162.704 178.503 162.663 178.245 162.663H177.837V162.116H178.245C178.447 162.116 178.624 162.08 178.777 162.007C178.931 161.934 179.051 161.831 179.137 161.699C179.225 161.566 179.269 161.411 179.269 161.232C179.269 161.059 179.231 160.909 179.154 160.782C179.078 160.654 178.97 160.555 178.831 160.483C178.694 160.412 178.531 160.376 178.344 160.376C178.168 160.376 178.003 160.409 177.847 160.473C177.693 160.536 177.567 160.628 177.469 160.749C177.371 160.869 177.318 161.013 177.31 161.182H176.713C176.723 160.915 176.804 160.681 176.954 160.481C177.105 160.279 177.302 160.121 177.546 160.009C177.791 159.896 178.061 159.839 178.354 159.839C178.669 159.839 178.939 159.903 179.164 160.031C179.39 160.157 179.563 160.323 179.684 160.531C179.805 160.738 179.865 160.961 179.865 161.202C179.865 161.488 179.79 161.733 179.639 161.935C179.49 162.137 179.287 162.277 179.03 162.355V162.395C179.352 162.448 179.603 162.585 179.783 162.805C179.964 163.024 180.054 163.295 180.054 163.618C180.054 163.895 179.979 164.143 179.828 164.364C179.679 164.582 179.475 164.755 179.217 164.881C178.958 165.007 178.664 165.07 178.334 165.07ZM181.23 165L183.507 160.496V160.456H180.882V159.909H184.143V160.486L181.876 165H181.23ZM186.598 165.07C186.257 165.07 185.955 165.009 185.693 164.888C185.433 164.766 185.23 164.597 185.084 164.384C184.938 164.168 184.866 163.923 184.868 163.648C184.866 163.432 184.909 163.233 184.995 163.051C185.081 162.867 185.199 162.714 185.348 162.591C185.499 162.467 185.667 162.388 185.852 162.355V162.325C185.609 162.262 185.415 162.126 185.271 161.915C185.127 161.703 185.055 161.462 185.057 161.192C185.055 160.933 185.121 160.702 185.253 160.498C185.386 160.294 185.568 160.134 185.8 160.016C186.034 159.898 186.3 159.839 186.598 159.839C186.893 159.839 187.157 159.898 187.389 160.016C187.621 160.134 187.803 160.294 187.935 160.498C188.07 160.702 188.138 160.933 188.139 161.192C188.138 161.462 188.064 161.703 187.918 161.915C187.774 162.126 187.582 162.262 187.344 162.325V162.355C187.528 162.388 187.694 162.467 187.841 162.591C187.988 162.714 188.106 162.867 188.194 163.051C188.282 163.233 188.327 163.432 188.328 163.648C188.327 163.923 188.252 164.168 188.104 164.384C187.959 164.597 187.756 164.766 187.495 164.888C187.237 165.009 186.938 165.07 186.598 165.07ZM186.598 164.523C186.828 164.523 187.027 164.485 187.195 164.411C187.362 164.336 187.491 164.231 187.582 164.095C187.674 163.959 187.72 163.8 187.722 163.618C187.72 163.426 187.67 163.256 187.573 163.108C187.475 162.961 187.341 162.845 187.172 162.76C187.005 162.676 186.814 162.634 186.598 162.634C186.381 162.634 186.187 162.676 186.016 162.76C185.847 162.845 185.714 162.961 185.616 163.108C185.52 163.256 185.473 163.426 185.475 163.618C185.473 163.8 185.517 163.959 185.606 164.095C185.697 164.231 185.828 164.336 185.997 164.411C186.166 164.485 186.366 164.523 186.598 164.523ZM186.598 162.107C186.78 162.107 186.942 162.07 187.083 161.997C187.225 161.924 187.337 161.822 187.418 161.691C187.5 161.56 187.541 161.407 187.543 161.232C187.541 161.059 187.5 160.909 187.421 160.782C187.341 160.652 187.231 160.553 187.09 160.483C186.949 160.412 186.785 160.376 186.598 160.376C186.408 160.376 186.241 160.412 186.098 160.483C185.956 160.553 185.846 160.652 185.768 160.782C185.69 160.909 185.652 161.059 185.653 161.232C185.652 161.407 185.691 161.56 185.77 161.691C185.852 161.822 185.963 161.924 186.106 161.997C186.248 162.07 186.412 162.107 186.598 162.107ZM190.941 165.07C190.567 165.07 190.248 164.968 189.984 164.764C189.721 164.558 189.52 164.261 189.38 163.871C189.241 163.48 189.172 163.008 189.172 162.455C189.172 161.904 189.241 161.435 189.38 161.045C189.521 160.654 189.723 160.356 189.987 160.15C190.252 159.943 190.57 159.839 190.941 159.839C191.313 159.839 191.63 159.943 191.893 160.15C192.159 160.356 192.361 160.654 192.5 161.045C192.641 161.435 192.711 161.904 192.711 162.455C192.711 163.008 192.642 163.48 192.502 163.871C192.363 164.261 192.162 164.558 191.898 164.764C191.635 164.968 191.316 165.07 190.941 165.07ZM190.941 164.523C191.313 164.523 191.601 164.344 191.806 163.986C192.012 163.628 192.115 163.117 192.115 162.455C192.115 162.014 192.067 161.638 191.973 161.328C191.88 161.019 191.746 160.782 191.57 160.62C191.396 160.458 191.187 160.376 190.941 160.376C190.574 160.376 190.286 160.558 190.079 160.921C189.872 161.282 189.768 161.793 189.768 162.455C189.768 162.895 189.815 163.27 189.907 163.578C190 163.886 190.134 164.121 190.308 164.282C190.483 164.442 190.694 164.523 190.941 164.523Z" fill="#515661"/>
<g opacity="0.4">
<path fill-rule="evenodd" clip-rule="evenodd" d="M407.924 152.516L404.929 149.521L405.354 149.095L408.562 152.305V152.73L405.354 155.937L404.929 155.512L407.924 152.516Z" fill="#3A3D44"/>
</g>
<rect opacity="0.6" x="33" y="64" width="434" height="87" rx="24" fill="#F3F4F6"/>
<rect opacity="0.6" x="62" y="88" width="37" height="39" rx="18.5" fill="#FDBA74"/>
<path opacity="0.6" d="M116.219 105V92.6364H120.952C121.846 92.6364 122.588 92.7772 123.18 93.0589C123.776 93.3366 124.22 93.717 124.514 94.1999C124.812 94.6829 124.961 95.2302 124.961 95.842C124.961 96.3451 124.864 96.7757 124.671 97.1339C124.478 97.488 124.218 97.7758 123.892 97.9972C123.566 98.2185 123.202 98.3775 122.8 98.4741V98.5948C123.238 98.619 123.659 98.7538 124.061 98.9993C124.468 99.2408 124.8 99.5829 125.058 100.026C125.315 100.468 125.444 101.004 125.444 101.631C125.444 102.271 125.289 102.847 124.979 103.358C124.669 103.865 124.202 104.266 123.578 104.559C122.955 104.853 122.17 105 121.224 105H116.219ZM118.459 103.129H120.868C121.681 103.129 122.266 102.974 122.625 102.664C122.987 102.35 123.168 101.947 123.168 101.456C123.168 101.09 123.077 100.76 122.896 100.466C122.715 100.168 122.458 99.935 122.124 99.766C121.79 99.5929 121.391 99.5064 120.928 99.5064H118.459V103.129ZM118.459 97.8945H120.675C121.061 97.8945 121.409 97.8241 121.719 97.6832C122.029 97.5384 122.272 97.3351 122.45 97.0735C122.631 96.8079 122.721 96.494 122.721 96.1317C122.721 95.6528 122.552 95.2584 122.214 94.9485C121.88 94.6386 121.383 94.4837 120.723 94.4837H118.459V97.8945ZM129.964 105.187C129.376 105.187 128.847 105.083 128.376 104.873C127.909 104.66 127.539 104.346 127.266 103.931C126.996 103.517 126.861 103.006 126.861 102.398C126.861 101.875 126.958 101.442 127.151 101.1C127.344 100.758 127.608 100.484 127.942 100.279C128.276 100.074 128.652 99.9189 129.071 99.8143C129.493 99.7056 129.93 99.6271 130.381 99.5788C130.924 99.5225 131.365 99.4722 131.703 99.4279C132.041 99.3796 132.286 99.3072 132.439 99.2106C132.596 99.11 132.675 98.955 132.675 98.7457V98.7095C132.675 98.2547 132.54 97.9026 132.27 97.6531C132.001 97.4035 131.612 97.2788 131.105 97.2788C130.57 97.2788 130.145 97.3955 129.831 97.6289C129.521 97.8623 129.312 98.138 129.203 98.456L127.163 98.1662C127.324 97.6027 127.59 97.1319 127.96 96.7536C128.33 96.3712 128.783 96.0855 129.318 95.8963C129.853 95.7031 130.445 95.6065 131.093 95.6065C131.54 95.6065 131.984 95.6589 132.427 95.7635C132.87 95.8681 133.274 96.0412 133.641 96.2827C134.007 96.5201 134.301 96.8441 134.522 97.2546C134.747 97.6651 134.86 98.1783 134.86 98.794V105H132.759V103.726H132.687C132.554 103.984 132.367 104.225 132.125 104.451C131.888 104.672 131.588 104.851 131.226 104.988C130.868 105.121 130.447 105.187 129.964 105.187ZM130.532 103.581C130.97 103.581 131.351 103.495 131.672 103.322C131.994 103.145 132.242 102.911 132.415 102.621C132.592 102.332 132.681 102.016 132.681 101.674V100.581C132.612 100.637 132.496 100.69 132.331 100.738C132.17 100.786 131.988 100.828 131.787 100.865C131.586 100.901 131.387 100.933 131.19 100.961C130.992 100.989 130.821 101.014 130.676 101.034C130.35 101.078 130.059 101.15 129.801 101.251C129.543 101.352 129.34 101.493 129.191 101.674C129.042 101.851 128.968 102.08 128.968 102.362C128.968 102.764 129.115 103.068 129.409 103.273C129.702 103.479 130.077 103.581 130.532 103.581ZM137.057 105V95.7273H139.176V97.2727H139.273C139.442 96.7375 139.732 96.3249 140.142 96.0352C140.557 95.7414 141.03 95.5945 141.561 95.5945C141.682 95.5945 141.817 95.6005 141.965 95.6126C142.118 95.6206 142.245 95.6347 142.346 95.6548V97.6651C142.253 97.6329 142.106 97.6048 141.905 97.5806C141.708 97.5524 141.517 97.5384 141.332 97.5384C140.933 97.5384 140.575 97.6249 140.257 97.7979C139.943 97.967 139.696 98.2024 139.514 98.5043C139.333 98.8061 139.243 99.1542 139.243 99.5487V105H137.057ZM148.926 95.7273V97.4176H143.595V95.7273H148.926ZM144.911 93.5057H147.097V102.211C147.097 102.505 147.141 102.73 147.23 102.887C147.322 103.04 147.443 103.145 147.592 103.201C147.741 103.257 147.906 103.286 148.087 103.286C148.224 103.286 148.349 103.275 148.461 103.255C148.578 103.235 148.666 103.217 148.727 103.201L149.095 104.909C148.978 104.95 148.811 104.994 148.594 105.042C148.381 105.091 148.119 105.119 147.809 105.127C147.262 105.143 146.769 105.06 146.33 104.879C145.891 104.694 145.543 104.408 145.286 104.022C145.032 103.636 144.907 103.153 144.911 102.573V93.5057ZM154.699 105.181C153.793 105.181 153.009 104.982 152.344 104.583C151.68 104.185 151.165 103.628 150.799 102.911C150.437 102.195 150.256 101.358 150.256 100.4C150.256 99.442 150.437 98.6029 150.799 97.8825C151.165 97.162 151.68 96.6026 152.344 96.2042C153.009 95.8058 153.793 95.6065 154.699 95.6065C155.604 95.6065 156.389 95.8058 157.053 96.2042C157.717 96.6026 158.23 97.162 158.593 97.8825C158.959 98.6029 159.142 99.442 159.142 100.4C159.142 101.358 158.959 102.195 158.593 102.911C158.23 103.628 157.717 104.185 157.053 104.583C156.389 104.982 155.604 105.181 154.699 105.181ZM154.711 103.43C155.202 103.43 155.612 103.296 155.942 103.026C156.272 102.752 156.518 102.386 156.679 101.927C156.844 101.468 156.926 100.957 156.926 100.394C156.926 99.8263 156.844 99.3132 156.679 98.8544C156.518 98.3916 156.272 98.0233 155.942 97.7496C155.612 97.476 155.202 97.3391 154.711 97.3391C154.208 97.3391 153.789 97.476 153.455 97.7496C153.125 98.0233 152.878 98.3916 152.713 98.8544C152.552 99.3132 152.471 99.8263 152.471 100.394C152.471 100.957 152.552 101.468 152.713 101.927C152.878 102.386 153.125 102.752 153.455 103.026C153.789 103.296 154.208 103.43 154.711 103.43ZM163.182 92.6364V105H160.997V92.6364H163.182ZM169.474 105.181C168.569 105.181 167.784 104.982 167.12 104.583C166.456 104.185 165.941 103.628 165.574 102.911C165.212 102.195 165.031 101.358 165.031 100.4C165.031 99.442 165.212 98.6029 165.574 97.8825C165.941 97.162 166.456 96.6026 167.12 96.2042C167.784 95.8058 168.569 95.6065 169.474 95.6065C170.38 95.6065 171.165 95.8058 171.829 96.2042C172.493 96.6026 173.006 97.162 173.368 97.8825C173.734 98.6029 173.917 99.442 173.917 100.4C173.917 101.358 173.734 102.195 173.368 102.911C173.006 103.628 172.493 104.185 171.829 104.583C171.165 104.982 170.38 105.181 169.474 105.181ZM169.486 103.43C169.977 103.43 170.388 103.296 170.718 103.026C171.048 102.752 171.293 102.386 171.454 101.927C171.619 101.468 171.702 100.957 171.702 100.394C171.702 99.8263 171.619 99.3132 171.454 98.8544C171.293 98.3916 171.048 98.0233 170.718 97.7496C170.388 97.476 169.977 97.3391 169.486 97.3391C168.983 97.3391 168.565 97.476 168.231 97.7496C167.901 98.0233 167.653 98.3916 167.488 98.8544C167.327 99.3132 167.247 99.8263 167.247 100.394C167.247 100.957 167.327 101.468 167.488 101.927C167.653 102.386 167.901 102.752 168.231 103.026C168.565 103.296 168.983 103.43 169.486 103.43ZM175.652 105V103.612L180.433 97.6168V97.5384H175.809V95.7273H183.107V97.2184L178.555 103.11V103.189H183.264V105H175.652ZM185.197 105V103.612L189.979 97.6168V97.5384H185.354V95.7273H192.653V97.2184L188.101 103.11V103.189H192.81V105H185.197ZM194.864 105V95.7273H197.049V105H194.864ZM195.963 94.4112C195.617 94.4112 195.319 94.2965 195.069 94.0671C194.82 93.8337 194.695 93.554 194.695 93.228C194.695 92.898 194.82 92.6183 195.069 92.3888C195.319 92.1554 195.617 92.0387 195.963 92.0387C196.313 92.0387 196.611 92.1554 196.856 92.3888C197.106 92.6183 197.231 92.898 197.231 93.228C197.231 93.554 197.106 93.8337 196.856 94.0671C196.611 94.2965 196.313 94.4112 195.963 94.4112Z" fill="#18181B"/>
<path opacity="0.6" d="M75.2195 114V101.636H79.9524C80.8459 101.636 81.5884 101.777 82.18 102.059C82.7757 102.337 83.2204 102.717 83.5142 103.2C83.812 103.683 83.9609 104.23 83.9609 104.842C83.9609 105.345 83.8643 105.776 83.6712 106.134C83.478 106.488 83.2184 106.776 82.8924 106.997C82.5664 107.219 82.2022 107.377 81.7997 107.474V107.595C82.2384 107.619 82.659 107.754 83.0614 107.999C83.4679 108.241 83.8 108.583 84.0575 109.026C84.3151 109.468 84.4439 110.004 84.4439 110.631C84.4439 111.271 84.2889 111.847 83.979 112.358C83.6692 112.865 83.2023 113.266 82.5785 113.559C81.9547 113.853 81.1699 114 80.2241 114H75.2195ZM77.4592 112.129H79.8679C80.6809 112.129 81.2665 111.974 81.6246 111.664C81.9869 111.35 82.168 110.947 82.168 110.456C82.168 110.09 82.0774 109.76 81.8963 109.466C81.7152 109.168 81.4576 108.935 81.1236 108.766C80.7895 108.593 80.3911 108.506 79.9283 108.506H77.4592V112.129ZM77.4592 106.895H79.6747C80.0611 106.895 80.4092 106.824 80.7191 106.683C81.029 106.538 81.2725 106.335 81.4496 106.074C81.6307 105.808 81.7212 105.494 81.7212 105.132C81.7212 104.653 81.5522 104.258 81.2141 103.949C80.8801 103.639 80.383 103.484 79.723 103.484H77.4592V106.895Z" fill="white"/>
<path opacity="0.6" d="M115.959 121.727C115.959 120.922 116.063 120.181 116.272 119.506C116.483 118.828 116.783 118.205 117.173 117.636H117.838C117.685 117.847 117.541 118.107 117.407 118.416C117.275 118.723 117.158 119.061 117.058 119.429C116.958 119.796 116.879 120.175 116.822 120.567C116.766 120.959 116.739 121.346 116.739 121.727C116.739 122.234 116.788 122.749 116.886 123.271C116.984 123.793 117.116 124.278 117.282 124.725C117.448 125.173 117.634 125.537 117.838 125.818H117.173C116.783 125.249 116.483 124.627 116.272 123.952C116.063 123.274 115.959 122.533 115.959 121.727ZM118.785 123.658V123.006L121.661 118.455H122.134V119.464H121.815L119.641 122.903V122.955H123.515V123.658H118.785ZM121.866 125V123.46V123.156V118.455H122.62V125H121.866ZM126.809 125.089C126.37 125.089 125.983 125.012 125.646 124.856C125.311 124.699 125.05 124.482 124.863 124.207C124.675 123.93 124.583 123.615 124.585 123.261C124.583 122.984 124.637 122.729 124.748 122.494C124.859 122.258 125.01 122.061 125.202 121.903C125.396 121.743 125.612 121.642 125.85 121.599V121.561C125.537 121.48 125.288 121.304 125.103 121.034C124.917 120.761 124.826 120.451 124.828 120.104C124.826 119.771 124.91 119.474 125.08 119.212C125.251 118.95 125.485 118.743 125.783 118.592C126.084 118.441 126.426 118.365 126.809 118.365C127.189 118.365 127.527 118.441 127.826 118.592C128.124 118.743 128.358 118.95 128.529 119.212C128.701 119.474 128.789 119.771 128.791 120.104C128.789 120.451 128.694 120.761 128.506 121.034C128.321 121.304 128.075 121.48 127.768 121.561V121.599C128.005 121.642 128.218 121.743 128.407 121.903C128.597 122.061 128.748 122.258 128.861 122.494C128.974 122.729 129.032 122.984 129.034 123.261C129.032 123.615 128.936 123.93 128.746 124.207C128.559 124.482 128.298 124.699 127.963 124.856C127.631 125.012 127.246 125.089 126.809 125.089ZM126.809 124.386C127.105 124.386 127.361 124.338 127.576 124.243C127.792 124.147 127.958 124.011 128.075 123.837C128.192 123.662 128.252 123.457 128.254 123.223C128.252 122.976 128.188 122.757 128.062 122.568C127.936 122.378 127.765 122.229 127.548 122.12C127.332 122.012 127.086 121.957 126.809 121.957C126.53 121.957 126.281 122.012 126.061 122.12C125.844 122.229 125.673 122.378 125.547 122.568C125.423 122.757 125.363 122.976 125.365 123.223C125.363 123.457 125.419 123.662 125.534 123.837C125.651 124.011 125.819 124.147 126.036 124.243C126.253 124.338 126.511 124.386 126.809 124.386ZM126.809 121.28C127.044 121.28 127.251 121.233 127.433 121.139C127.616 121.045 127.76 120.914 127.864 120.746C127.968 120.578 128.022 120.381 128.024 120.155C128.022 119.933 127.969 119.74 127.867 119.576C127.765 119.41 127.623 119.282 127.442 119.193C127.261 119.101 127.05 119.055 126.809 119.055C126.564 119.055 126.35 119.101 126.167 119.193C125.984 119.282 125.842 119.41 125.742 119.576C125.642 119.74 125.593 119.933 125.595 120.155C125.593 120.381 125.643 120.578 125.745 120.746C125.849 120.914 125.993 121.045 126.176 121.139C126.36 121.233 126.571 121.28 126.809 121.28ZM132.304 125.089C131.929 125.089 131.591 125.015 131.291 124.866C130.991 124.717 130.75 124.512 130.569 124.252C130.388 123.992 130.288 123.696 130.271 123.364H131.038C131.068 123.66 131.203 123.905 131.441 124.099C131.682 124.29 131.97 124.386 132.304 124.386C132.573 124.386 132.811 124.324 133.02 124.198C133.231 124.072 133.396 123.9 133.515 123.68C133.637 123.458 133.698 123.208 133.698 122.929C133.698 122.643 133.635 122.389 133.509 122.165C133.385 121.939 133.215 121.761 132.998 121.631C132.78 121.501 132.532 121.435 132.253 121.433C132.053 121.431 131.847 121.462 131.636 121.526C131.425 121.588 131.252 121.668 131.115 121.766L130.374 121.676L130.77 118.455H134.171V119.158H131.435L131.205 121.088H131.243C131.377 120.982 131.546 120.893 131.748 120.823C131.95 120.752 132.161 120.717 132.381 120.717C132.781 120.717 133.138 120.813 133.451 121.005C133.767 121.195 134.014 121.455 134.193 121.785C134.374 122.115 134.465 122.492 134.465 122.916C134.465 123.334 134.371 123.707 134.183 124.035C133.998 124.361 133.742 124.619 133.416 124.808C133.09 124.996 132.72 125.089 132.304 125.089ZM137.358 121.727C137.358 122.533 137.252 123.274 137.041 123.952C136.833 124.627 136.533 125.249 136.143 125.818H135.479C135.632 125.607 135.775 125.347 135.907 125.038C136.041 124.732 136.158 124.395 136.258 124.028C136.358 123.66 136.436 123.279 136.492 122.887C136.549 122.493 136.578 122.107 136.578 121.727C136.578 121.22 136.529 120.706 136.431 120.184C136.333 119.662 136.201 119.177 136.035 118.729C135.868 118.282 135.683 117.918 135.479 117.636H136.143C136.533 118.205 136.833 118.828 137.041 119.506C137.252 120.181 137.358 120.922 137.358 121.727ZM141.82 121.376V122.079H138.957V121.376H141.82ZM145.218 118.365C145.487 118.367 145.755 118.418 146.024 118.518C146.292 118.619 146.537 118.785 146.759 119.017C146.98 119.247 147.158 119.561 147.293 119.96C147.427 120.358 147.494 120.858 147.494 121.459C147.494 122.04 147.439 122.557 147.328 123.009C147.219 123.458 147.061 123.838 146.855 124.147C146.65 124.456 146.401 124.69 146.107 124.85C145.815 125.01 145.485 125.089 145.116 125.089C144.75 125.089 144.423 125.017 144.135 124.872C143.849 124.725 143.615 124.522 143.432 124.262C143.251 124 143.135 123.696 143.083 123.351H143.863C143.934 123.651 144.073 123.9 144.282 124.096C144.493 124.289 144.771 124.386 145.116 124.386C145.621 124.386 146.02 124.166 146.311 123.725C146.605 123.284 146.752 122.661 146.752 121.855H146.701C146.582 122.034 146.44 122.189 146.276 122.319C146.112 122.449 145.93 122.549 145.73 122.619C145.529 122.689 145.316 122.724 145.091 122.724C144.716 122.724 144.371 122.632 144.058 122.446C143.747 122.259 143.498 122.002 143.31 121.676C143.125 121.348 143.032 120.973 143.032 120.551C143.032 120.151 143.122 119.784 143.301 119.452C143.482 119.117 143.735 118.851 144.061 118.653C144.39 118.455 144.775 118.359 145.218 118.365ZM145.218 119.068C144.95 119.068 144.708 119.135 144.493 119.27C144.28 119.402 144.11 119.581 143.985 119.806C143.861 120.03 143.799 120.278 143.799 120.551C143.799 120.824 143.859 121.072 143.978 121.296C144.1 121.517 144.265 121.694 144.474 121.826C144.685 121.956 144.924 122.021 145.193 122.021C145.395 122.021 145.584 121.982 145.759 121.903C145.933 121.822 146.086 121.712 146.216 121.574C146.348 121.433 146.451 121.275 146.526 121.098C146.6 120.919 146.637 120.732 146.637 120.538C146.637 120.283 146.576 120.043 146.452 119.819C146.331 119.596 146.162 119.414 145.947 119.276C145.734 119.137 145.491 119.068 145.218 119.068ZM151.052 118.455V125H150.259V119.286H150.221L148.623 120.347V119.541L150.259 118.455H151.052ZM155.069 125.089C154.588 125.089 154.178 124.958 153.839 124.696C153.5 124.432 153.241 124.05 153.062 123.549C152.883 123.046 152.794 122.439 152.794 121.727C152.794 121.02 152.883 120.416 153.062 119.915C153.243 119.412 153.503 119.029 153.842 118.765C154.183 118.498 154.592 118.365 155.069 118.365C155.547 118.365 155.955 118.498 156.293 118.765C156.634 119.029 156.894 119.412 157.073 119.915C157.254 120.416 157.345 121.02 157.345 121.727C157.345 122.439 157.255 123.046 157.076 123.549C156.897 124.05 156.639 124.432 156.3 124.696C155.961 124.958 155.551 125.089 155.069 125.089ZM155.069 124.386C155.547 124.386 155.917 124.156 156.182 123.696C156.446 123.236 156.578 122.58 156.578 121.727C156.578 121.161 156.517 120.678 156.396 120.279C156.276 119.881 156.104 119.577 155.878 119.369C155.654 119.16 155.385 119.055 155.069 119.055C154.596 119.055 154.227 119.289 153.96 119.755C153.694 120.22 153.561 120.877 153.561 121.727C153.561 122.294 153.62 122.776 153.74 123.172C153.859 123.568 154.031 123.87 154.254 124.076C154.48 124.283 154.752 124.386 155.069 124.386ZM161.385 121.376V122.079H158.521V121.376H161.385ZM165 118.455V125H164.208V119.286H164.169L162.571 120.347V119.541L164.208 118.455H165ZM166.729 123.658V123.006L169.606 118.455H170.079V119.464H169.759L167.586 122.903V122.955H171.459V123.658H166.729ZM169.81 125V123.46V123.156V118.455H170.564V125H169.81ZM174.741 118.365C175.009 118.367 175.278 118.418 175.546 118.518C175.815 118.619 176.06 118.785 176.281 119.017C176.503 119.247 176.681 119.561 176.815 119.96C176.949 120.358 177.016 120.858 177.016 121.459C177.016 122.04 176.961 122.557 176.85 123.009C176.742 123.458 176.584 123.838 176.377 124.147C176.173 124.456 175.923 124.69 175.629 124.85C175.337 125.01 175.007 125.089 174.639 125.089C174.272 125.089 173.945 125.017 173.657 124.872C173.372 124.725 173.138 124.522 172.954 124.262C172.773 124 172.657 123.696 172.606 123.351H173.386C173.456 123.651 173.596 123.9 173.804 124.096C174.015 124.289 174.293 124.386 174.639 124.386C175.144 124.386 175.542 124.166 175.834 123.725C176.128 123.284 176.275 122.661 176.275 121.855H176.224C176.104 122.034 175.963 122.189 175.799 122.319C175.635 122.449 175.453 122.549 175.252 122.619C175.052 122.689 174.839 122.724 174.613 122.724C174.238 122.724 173.894 122.632 173.581 122.446C173.27 122.259 173.02 122.002 172.833 121.676C172.647 121.348 172.555 120.973 172.555 120.551C172.555 120.151 172.644 119.784 172.823 119.452C173.004 119.117 173.258 118.851 173.584 118.653C173.912 118.455 174.298 118.359 174.741 118.365ZM174.741 119.068C174.472 119.068 174.231 119.135 174.015 119.27C173.802 119.402 173.633 119.581 173.507 119.806C173.384 120.03 173.322 120.278 173.322 120.551C173.322 120.824 173.381 121.072 173.501 121.296C173.622 121.517 173.787 121.694 173.996 121.826C174.207 121.956 174.447 122.021 174.715 122.021C174.918 122.021 175.106 121.982 175.281 121.903C175.456 121.822 175.608 121.712 175.738 121.574C175.87 121.433 175.973 121.275 176.048 121.098C176.123 120.919 176.16 120.732 176.16 120.538C176.16 120.283 176.098 120.043 175.975 119.819C175.853 119.596 175.685 119.414 175.47 119.276C175.256 119.137 175.014 119.068 174.741 119.068ZM180.447 125.089C180.178 125.085 179.91 125.034 179.641 124.936C179.373 124.838 179.128 124.673 178.906 124.441C178.684 124.206 178.507 123.89 178.372 123.491C178.238 123.091 178.171 122.588 178.171 121.983C178.171 121.403 178.225 120.89 178.334 120.442C178.443 119.993 178.6 119.615 178.807 119.308C179.014 118.999 179.263 118.765 179.555 118.605C179.849 118.445 180.18 118.365 180.549 118.365C180.915 118.365 181.241 118.439 181.527 118.586C181.814 118.73 182.049 118.933 182.23 119.193C182.411 119.453 182.528 119.752 182.581 120.091H181.802C181.729 119.797 181.589 119.553 181.38 119.359C181.171 119.165 180.894 119.068 180.549 119.068C180.042 119.068 179.642 119.289 179.35 119.73C179.061 120.171 178.915 120.79 178.912 121.587H178.964C179.083 121.406 179.225 121.251 179.389 121.123C179.555 120.993 179.738 120.893 179.938 120.823C180.139 120.752 180.351 120.717 180.574 120.717C180.949 120.717 181.292 120.811 181.604 120.999C181.915 121.184 182.164 121.441 182.351 121.769C182.539 122.095 182.633 122.469 182.633 122.891C182.633 123.295 182.542 123.666 182.361 124.003C182.18 124.337 181.925 124.604 181.597 124.802C181.271 124.998 180.888 125.094 180.447 125.089ZM180.447 124.386C180.715 124.386 180.956 124.319 181.169 124.185C181.384 124.051 181.553 123.871 181.677 123.645C181.803 123.419 181.866 123.168 181.866 122.891C181.866 122.62 181.805 122.374 181.683 122.152C181.564 121.929 181.399 121.751 181.188 121.619C180.979 121.487 180.741 121.42 180.472 121.42C180.27 121.42 180.081 121.461 179.906 121.542C179.732 121.621 179.578 121.729 179.446 121.868C179.316 122.006 179.214 122.165 179.139 122.344C179.065 122.521 179.028 122.707 179.028 122.903C179.028 123.163 179.088 123.406 179.21 123.632C179.333 123.858 179.502 124.04 179.715 124.179C179.93 124.317 180.174 124.386 180.447 124.386Z" fill="#6B7280"/>
<g opacity="0.6">
<path fill-rule="evenodd" clip-rule="evenodd" d="M433.702 108.526L429.072 103.896L429.729 103.237L434.688 108.198V108.855L429.729 113.813L429.072 113.155L433.702 108.526Z" fill="#6B7280"/>
</g>
<rect width="507" height="102" rx="24" fill="#18181B"/>
<rect width="507" height="102" rx="24" fill="#F3F4F6"/>
<rect x="33" y="29" width="44" height="44" rx="22" fill="#EF4444"/>
<path d="M98.3026 48H95.4901L100.611 33.4545H103.864L108.991 48H106.179L102.294 36.4375H102.18L98.3026 48ZM98.3949 42.2969H106.065V44.4134H98.3949V42.2969ZM110.794 48V37.0909H113.251V38.9446H113.379C113.606 38.3196 113.983 37.8319 114.508 37.4815C115.034 37.1264 115.661 36.9489 116.39 36.9489C117.129 36.9489 117.752 37.1288 118.258 37.4886C118.77 37.8437 119.129 38.3291 119.338 38.9446H119.451C119.693 38.3385 120.1 37.8556 120.673 37.4957C121.251 37.1312 121.935 36.9489 122.725 36.9489C123.729 36.9489 124.548 37.2661 125.183 37.9006C125.817 38.535 126.135 39.4607 126.135 40.6776V48H123.556V41.0753C123.556 40.3982 123.377 39.9034 123.017 39.5909C122.657 39.2737 122.217 39.1151 121.696 39.1151C121.075 39.1151 120.59 39.3092 120.24 39.6974C119.894 40.081 119.721 40.5805 119.721 41.196V48H117.2V40.9688C117.2 40.4053 117.029 39.9555 116.689 39.6193C116.352 39.2831 115.912 39.1151 115.368 39.1151C114.998 39.1151 114.662 39.2098 114.359 39.3991C114.056 39.5838 113.815 39.8466 113.635 40.1875C113.455 40.5237 113.365 40.9167 113.365 41.3665V48H110.794ZM131.882 48.2202C131.191 48.2202 130.568 48.0971 130.014 47.8509C129.465 47.5999 129.029 47.2306 128.707 46.7429C128.39 46.2552 128.232 45.6539 128.232 44.9389C128.232 44.3234 128.345 43.8144 128.572 43.4119C128.8 43.0095 129.11 42.6875 129.503 42.446C129.896 42.2045 130.339 42.0223 130.831 41.8991C131.328 41.7713 131.842 41.679 132.372 41.6222C133.011 41.5559 133.53 41.4967 133.928 41.4446C134.325 41.3878 134.614 41.3026 134.794 41.1889C134.979 41.0705 135.071 40.8883 135.071 40.642V40.5994C135.071 40.0644 134.912 39.6501 134.595 39.3565C134.278 39.063 133.821 38.9162 133.224 38.9162C132.595 38.9162 132.095 39.0535 131.726 39.3281C131.361 39.6027 131.115 39.9271 130.987 40.3011L128.587 39.9602C128.776 39.2973 129.089 38.7434 129.524 38.2983C129.96 37.8485 130.492 37.5123 131.122 37.2898C131.752 37.0625 132.448 36.9489 133.21 36.9489C133.736 36.9489 134.259 37.0104 134.78 37.1335C135.301 37.2566 135.777 37.4602 136.207 37.7443C136.638 38.0237 136.984 38.4048 137.244 38.8878C137.509 39.3707 137.642 39.9744 137.642 40.6989V48H135.17V46.5014H135.085C134.929 46.8045 134.709 47.0885 134.425 47.3537C134.145 47.6141 133.793 47.8248 133.366 47.9858C132.945 48.142 132.45 48.2202 131.882 48.2202ZM132.55 46.331C133.066 46.331 133.513 46.2292 133.892 46.0256C134.271 45.8172 134.562 45.5426 134.766 45.2017C134.974 44.8608 135.078 44.4891 135.078 44.0866V42.8011C134.998 42.8674 134.86 42.929 134.666 42.9858C134.477 43.0426 134.264 43.0923 134.027 43.1349C133.79 43.1776 133.556 43.2154 133.324 43.2486C133.092 43.2817 132.891 43.3101 132.72 43.3338C132.337 43.3859 131.993 43.4711 131.69 43.5895C131.387 43.7079 131.148 43.8736 130.973 44.0866C130.798 44.295 130.71 44.5649 130.71 44.8963C130.71 45.3698 130.883 45.7273 131.229 45.9688C131.574 46.2102 132.015 46.331 132.55 46.331ZM142.798 41.608V48H140.227V37.0909H142.685V38.9446H142.812C143.063 38.3338 143.464 37.8485 144.013 37.4886C144.567 37.1288 145.251 36.9489 146.065 36.9489C146.818 36.9489 147.474 37.1098 148.033 37.4318C148.596 37.7538 149.032 38.2202 149.339 38.831C149.652 39.4418 149.806 40.1828 149.801 41.054V48H147.23V41.4517C147.23 40.7225 147.041 40.152 146.662 39.7401C146.288 39.3281 145.769 39.1222 145.107 39.1222C144.657 39.1222 144.257 39.2216 143.906 39.4205C143.561 39.6146 143.288 39.8963 143.089 40.2656C142.895 40.6349 142.798 41.0824 142.798 41.608ZM156.463 48.1918C155.606 48.1918 154.839 47.9716 154.162 47.5312C153.485 47.0909 152.95 46.4517 152.557 45.6136C152.164 44.7756 151.967 43.7576 151.967 42.5597C151.967 41.3475 152.166 40.3248 152.564 39.4915C152.966 38.6534 153.509 38.0213 154.19 37.5952C154.872 37.1643 155.632 36.9489 156.47 36.9489C157.109 36.9489 157.635 37.0578 158.047 37.2756C158.459 37.4886 158.786 37.7467 159.027 38.0497C159.268 38.348 159.455 38.6297 159.588 38.8949H159.695V33.4545H162.273V48H159.744V46.2812H159.588C159.455 46.5464 159.264 46.8281 159.013 47.1264C158.762 47.42 158.43 47.6709 158.018 47.8793C157.607 48.0876 157.088 48.1918 156.463 48.1918ZM157.18 46.0824C157.725 46.0824 158.189 45.9356 158.572 45.642C158.956 45.3437 159.247 44.9295 159.446 44.3991C159.645 43.8688 159.744 43.2509 159.744 42.5455C159.744 41.84 159.645 41.2268 159.446 40.706C159.252 40.1851 158.963 39.7803 158.58 39.4915C158.201 39.2027 157.734 39.0582 157.18 39.0582C156.607 39.0582 156.129 39.2074 155.746 39.5057C155.362 39.804 155.073 40.2159 154.879 40.7415C154.685 41.267 154.588 41.8684 154.588 42.5455C154.588 43.2273 154.685 43.8357 154.879 44.3707C155.078 44.901 155.369 45.3201 155.753 45.6278C156.141 45.9309 156.617 46.0824 157.18 46.0824ZM168.152 48.2202C167.46 48.2202 166.838 48.0971 166.284 47.8509C165.734 47.5999 165.299 47.2306 164.977 46.7429C164.66 46.2552 164.501 45.6539 164.501 44.9389C164.501 44.3234 164.615 43.8144 164.842 43.4119C165.069 43.0095 165.379 42.6875 165.772 42.446C166.165 42.2045 166.608 42.0223 167.1 41.8991C167.598 41.7713 168.111 41.679 168.642 41.6222C169.281 41.5559 169.799 41.4967 170.197 41.4446C170.595 41.3878 170.884 41.3026 171.064 41.1889C171.248 41.0705 171.341 40.8883 171.341 40.642V40.5994C171.341 40.0644 171.182 39.6501 170.865 39.3565C170.547 39.063 170.091 38.9162 169.494 38.9162C168.864 38.9162 168.365 39.0535 167.995 39.3281C167.631 39.6027 167.385 39.9271 167.257 40.3011L164.856 39.9602C165.046 39.2973 165.358 38.7434 165.794 38.2983C166.229 37.8485 166.762 37.5123 167.392 37.2898C168.021 37.0625 168.717 36.9489 169.48 36.9489C170.005 36.9489 170.529 37.0104 171.049 37.1335C171.57 37.2566 172.046 37.4602 172.477 37.7443C172.908 38.0237 173.253 38.4048 173.514 38.8878C173.779 39.3707 173.912 39.9744 173.912 40.6989V48H171.44V46.5014H171.355C171.199 46.8045 170.978 47.0885 170.694 47.3537C170.415 47.6141 170.062 47.8248 169.636 47.9858C169.215 48.142 168.72 48.2202 168.152 48.2202ZM168.819 46.331C169.335 46.331 169.783 46.2292 170.162 46.0256C170.54 45.8172 170.832 45.5426 171.035 45.2017C171.243 44.8608 171.348 44.4891 171.348 44.0866V42.8011C171.267 42.8674 171.13 42.929 170.936 42.9858C170.746 43.0426 170.533 43.0923 170.297 43.1349C170.06 43.1776 169.825 43.2154 169.593 43.2486C169.361 43.2817 169.16 43.3101 168.99 43.3338C168.606 43.3859 168.263 43.4711 167.96 43.5895C167.657 43.7079 167.418 43.8736 167.243 44.0866C167.067 44.295 166.98 44.5649 166.98 44.8963C166.98 45.3698 167.153 45.7273 167.498 45.9688C167.844 46.2102 168.284 46.331 168.819 46.331Z" fill="#18181B"/>
<path d="M51.3026 58H48.4901L53.6108 43.4545H56.8636L61.9915 58H59.179L55.294 46.4375H55.1804L51.3026 58ZM51.3949 52.2969H59.0653V54.4134H51.3949V52.2969Z" fill="white"/>
<path d="M96.2784 68.6364C96.2784 67.5625 96.4176 66.5753 96.696 65.6747C96.9773 64.7713 97.3778 63.9403 97.8977 63.1818H98.7841C98.5795 63.4631 98.3878 63.8097 98.2088 64.2216C98.0327 64.6307 97.8778 65.081 97.7443 65.5724C97.6108 66.0611 97.5057 66.5668 97.429 67.0895C97.3551 67.6122 97.3182 68.1278 97.3182 68.6364C97.3182 69.3125 97.3835 69.9986 97.5142 70.6946C97.6449 71.3906 97.821 72.0369 98.0426 72.6335C98.2642 73.2301 98.5114 73.7159 98.7841 74.0909H97.8977C97.3778 73.3324 96.9773 72.5028 96.696 71.6023C96.4176 70.6989 96.2784 69.7102 96.2784 68.6364ZM103.149 73.1193C102.791 73.1136 102.433 73.0455 102.075 72.9148C101.717 72.7841 101.39 72.5639 101.095 72.2543C100.799 71.9418 100.562 71.5199 100.383 70.9886C100.204 70.4545 100.115 69.7841 100.115 68.9773C100.115 68.2045 100.187 67.5199 100.332 66.9233C100.477 66.3239 100.687 65.8196 100.963 65.4105C101.238 64.9986 101.571 64.6861 101.96 64.473C102.352 64.2599 102.794 64.1534 103.285 64.1534C103.774 64.1534 104.208 64.2514 104.589 64.4474C104.973 64.6406 105.285 64.9105 105.527 65.2571C105.768 65.6037 105.924 66.0028 105.995 66.4545H104.956C104.859 66.0625 104.672 65.7372 104.393 65.4787C104.115 65.2202 103.745 65.0909 103.285 65.0909C102.609 65.0909 102.076 65.3849 101.687 65.973C101.301 66.5611 101.106 67.3864 101.103 68.4489H101.172C101.331 68.2074 101.52 68.0014 101.738 67.831C101.96 67.6577 102.204 67.5241 102.471 67.4304C102.738 67.3366 103.021 67.2898 103.319 67.2898C103.819 67.2898 104.277 67.4148 104.691 67.6648C105.106 67.9119 105.439 68.2543 105.689 68.6918C105.939 69.1264 106.064 69.625 106.064 70.1875C106.064 70.7273 105.943 71.2216 105.701 71.6705C105.46 72.1165 105.12 72.4716 104.683 72.7358C104.248 72.9972 103.737 73.125 103.149 73.1193ZM103.149 72.1818C103.507 72.1818 103.828 72.0923 104.112 71.9134C104.399 71.7344 104.625 71.4943 104.789 71.1932C104.957 70.892 105.041 70.5568 105.041 70.1875C105.041 69.8267 104.96 69.4986 104.798 69.2031C104.639 68.9048 104.419 68.6676 104.137 68.4915C103.859 68.3153 103.541 68.2273 103.183 68.2273C102.913 68.2273 102.662 68.2812 102.429 68.3892C102.196 68.4943 101.991 68.6392 101.815 68.8239C101.642 69.0085 101.505 69.2202 101.406 69.4588C101.306 69.6946 101.257 69.9432 101.257 70.2045C101.257 70.5511 101.338 70.875 101.5 71.1761C101.664 71.4773 101.889 71.7202 102.173 71.9048C102.46 72.0895 102.785 72.1818 103.149 72.1818ZM110.586 73.1193C109.944 73.1193 109.397 72.9446 108.945 72.5952C108.494 72.2429 108.148 71.733 107.91 71.0653C107.671 70.3949 107.552 69.5852 107.552 68.6364C107.552 67.6932 107.671 66.8878 107.91 66.2202C108.151 65.5497 108.498 65.0384 108.95 64.6861C109.404 64.331 109.95 64.1534 110.586 64.1534C111.222 64.1534 111.766 64.331 112.218 64.6861C112.673 65.0384 113.019 65.5497 113.258 66.2202C113.499 66.8878 113.62 67.6932 113.62 68.6364C113.62 69.5852 113.501 70.3949 113.262 71.0653C113.023 71.733 112.678 72.2429 112.227 72.5952C111.775 72.9446 111.228 73.1193 110.586 73.1193ZM110.586 72.1818C111.222 72.1818 111.717 71.875 112.069 71.2614C112.421 70.6477 112.597 69.7727 112.597 68.6364C112.597 67.8807 112.516 67.2372 112.354 66.706C112.195 66.1747 111.965 65.7699 111.664 65.4915C111.366 65.2131 111.006 65.0739 110.586 65.0739C109.955 65.0739 109.462 65.3849 109.107 66.0071C108.752 66.6264 108.575 67.5028 108.575 68.6364C108.575 69.392 108.654 70.0341 108.813 70.5625C108.972 71.0909 109.201 71.4929 109.499 71.7685C109.8 72.044 110.163 72.1818 110.586 72.1818ZM115.239 73V72.233L118.12 69.0795C118.458 68.7102 118.737 68.3892 118.955 68.1165C119.174 67.8409 119.336 67.5824 119.441 67.3409C119.549 67.0966 119.603 66.8409 119.603 66.5739C119.603 66.267 119.529 66.0014 119.381 65.777C119.237 65.5526 119.038 65.3793 118.785 65.2571C118.532 65.1349 118.248 65.0739 117.933 65.0739C117.597 65.0739 117.305 65.1435 117.055 65.2827C116.808 65.419 116.616 65.6108 116.479 65.858C116.346 66.1051 116.279 66.3949 116.279 66.7273H115.273C115.273 66.2159 115.391 65.767 115.627 65.3807C115.863 64.9943 116.184 64.6932 116.59 64.4773C116.999 64.2614 117.458 64.1534 117.967 64.1534C118.478 64.1534 118.931 64.2614 119.326 64.4773C119.721 64.6932 120.031 64.9844 120.255 65.3509C120.479 65.7173 120.592 66.125 120.592 66.5739C120.592 66.8949 120.533 67.2088 120.417 67.5156C120.303 67.8196 120.104 68.1591 119.82 68.5341C119.539 68.9062 119.148 69.3608 118.648 69.8977L116.688 71.9943V72.0625H120.745V73H115.239ZM124.67 68.6364C124.67 69.7102 124.529 70.6989 124.248 71.6023C123.969 72.5028 123.57 73.3324 123.05 74.0909H122.164C122.369 73.8097 122.559 73.4631 122.735 73.0511C122.914 72.642 123.07 72.1932 123.204 71.7045C123.337 71.2131 123.441 70.706 123.515 70.1832C123.592 69.6577 123.63 69.142 123.63 68.6364C123.63 67.9602 123.565 67.2741 123.434 66.5781C123.303 65.8821 123.127 65.2358 122.906 64.6392C122.684 64.0426 122.437 63.5568 122.164 63.1818H123.05C123.57 63.9403 123.969 64.7713 124.248 65.6747C124.529 66.5753 124.67 67.5625 124.67 68.6364ZM130.62 68.1676V69.1051H126.801V68.1676H130.62ZM131.962 73V72.233L134.843 69.0795C135.181 68.7102 135.459 68.3892 135.678 68.1165C135.897 67.8409 136.059 67.5824 136.164 67.3409C136.272 67.0966 136.326 66.8409 136.326 66.5739C136.326 66.267 136.252 66.0014 136.104 65.777C135.959 65.5526 135.76 65.3793 135.507 65.2571C135.255 65.1349 134.971 65.0739 134.655 65.0739C134.32 65.0739 134.027 65.1435 133.777 65.2827C133.53 65.419 133.338 65.6108 133.202 65.858C133.069 66.1051 133.002 66.3949 133.002 66.7273H131.996C131.996 66.2159 132.114 65.767 132.35 65.3807C132.586 64.9943 132.907 64.6932 133.313 64.4773C133.722 64.2614 134.181 64.1534 134.689 64.1534C135.201 64.1534 135.654 64.2614 136.049 64.4773C136.444 64.6932 136.753 64.9844 136.978 65.3509C137.202 65.7173 137.314 66.125 137.314 66.5739C137.314 66.8949 137.256 67.2088 137.14 67.5156C137.026 67.8196 136.827 68.1591 136.543 68.5341C136.262 68.9062 135.871 69.3608 135.371 69.8977L133.411 71.9943V72.0625H137.468V73H131.962ZM142.176 73.1193C141.614 73.1193 141.113 73.0227 140.672 72.8295C140.235 72.6364 139.887 72.3679 139.628 72.0241C139.373 71.6776 139.233 71.2756 139.211 70.8182H140.284C140.307 71.0994 140.404 71.3423 140.574 71.5469C140.745 71.7486 140.968 71.9048 141.243 72.0156C141.519 72.1264 141.824 72.1818 142.159 72.1818C142.534 72.1818 142.867 72.1165 143.157 71.9858C143.446 71.8551 143.674 71.6733 143.838 71.4403C144.003 71.2074 144.086 70.9375 144.086 70.6307C144.086 70.3097 144.006 70.027 143.847 69.7827C143.688 69.5355 143.455 69.3423 143.148 69.2031C142.841 69.0639 142.466 68.9943 142.023 68.9943H141.324V68.0568H142.023C142.37 68.0568 142.674 67.9943 142.935 67.8693C143.199 67.7443 143.405 67.5682 143.553 67.3409C143.703 67.1136 143.779 66.8466 143.779 66.5398C143.779 66.2443 143.713 65.9872 143.583 65.7685C143.452 65.5497 143.267 65.3793 143.029 65.2571C142.793 65.1349 142.515 65.0739 142.194 65.0739C141.892 65.0739 141.608 65.1293 141.341 65.2401C141.077 65.348 140.861 65.5057 140.694 65.7131C140.526 65.9176 140.435 66.1648 140.421 66.4545H139.398C139.415 65.9972 139.553 65.5966 139.811 65.2528C140.07 64.9062 140.408 64.6364 140.826 64.4432C141.246 64.25 141.708 64.1534 142.211 64.1534C142.75 64.1534 143.213 64.2628 143.6 64.4815C143.986 64.6974 144.283 64.983 144.49 65.3381C144.698 65.6932 144.801 66.0767 144.801 66.4886C144.801 66.9801 144.672 67.3991 144.414 67.7457C144.158 68.0923 143.81 68.3324 143.37 68.4659V68.5341C143.921 68.625 144.351 68.8594 144.661 69.2372C144.971 69.6122 145.125 70.0767 145.125 70.6307C145.125 71.1051 144.996 71.5312 144.738 71.9091C144.482 72.2841 144.132 72.5795 143.689 72.7955C143.246 73.0114 142.742 73.1193 142.176 73.1193ZM149.647 64.1534C150.005 64.1562 150.363 64.2244 150.721 64.358C151.078 64.4915 151.405 64.7131 151.701 65.0227C151.996 65.3295 152.233 65.7486 152.412 66.2798C152.591 66.8111 152.681 67.4773 152.681 68.2784C152.681 69.054 152.607 69.7429 152.459 70.3452C152.314 70.9446 152.104 71.4503 151.828 71.8622C151.556 72.2741 151.223 72.5866 150.831 72.7997C150.442 73.0128 150.002 73.1193 149.51 73.1193C149.022 73.1193 148.586 73.0227 148.202 72.8295C147.821 72.6335 147.509 72.3622 147.265 72.0156C147.023 71.6662 146.868 71.2614 146.8 70.8011H147.84C147.934 71.2017 148.12 71.5327 148.398 71.794C148.679 72.0526 149.05 72.1818 149.51 72.1818C150.184 72.1818 150.715 71.8878 151.104 71.2997C151.496 70.7116 151.692 69.8807 151.692 68.8068H151.624C151.465 69.0455 151.276 69.2514 151.057 69.4247C150.838 69.598 150.596 69.7315 150.328 69.8253C150.061 69.919 149.777 69.9659 149.476 69.9659C148.976 69.9659 148.517 69.8423 148.1 69.5952C147.685 69.3452 147.353 69.0028 147.103 68.5682C146.855 68.1307 146.732 67.6307 146.732 67.0682C146.732 66.5341 146.851 66.0455 147.09 65.6023C147.331 65.1562 147.669 64.8011 148.104 64.5369C148.542 64.2727 149.056 64.1449 149.647 64.1534ZM149.647 65.0909C149.289 65.0909 148.966 65.1804 148.679 65.3594C148.395 65.5355 148.169 65.7741 148.002 66.0753C147.837 66.3736 147.755 66.7045 147.755 67.0682C147.755 67.4318 147.834 67.7628 147.993 68.0611C148.155 68.3565 148.375 68.5923 148.654 68.7685C148.935 68.9418 149.255 69.0284 149.613 69.0284C149.882 69.0284 150.134 68.9759 150.367 68.8707C150.6 68.7628 150.803 68.6165 150.976 68.4318C151.152 68.2443 151.29 68.0327 151.39 67.7969C151.489 67.5582 151.539 67.3097 151.539 67.0511C151.539 66.7102 151.456 66.3906 151.292 66.0923C151.13 65.794 150.905 65.5526 150.618 65.3679C150.334 65.1832 150.01 65.0909 149.647 65.0909ZM158.124 68.1676V69.1051H154.305V68.1676H158.124ZM159.672 71.2102V70.3409L163.507 64.2727H164.137V65.6193H163.711L160.814 70.2045V70.2727H165.978V71.2102H159.672ZM163.779 73V70.946V70.5412V64.2727H164.785V73H163.779ZM170.473 73.1193C170.115 73.1136 169.757 73.0455 169.399 72.9148C169.041 72.7841 168.714 72.5639 168.419 72.2543C168.124 71.9418 167.886 71.5199 167.707 70.9886C167.528 70.4545 167.439 69.7841 167.439 68.9773C167.439 68.2045 167.511 67.5199 167.656 66.9233C167.801 66.3239 168.011 65.8196 168.287 65.4105C168.563 64.9986 168.895 64.6861 169.284 64.473C169.676 64.2599 170.118 64.1534 170.609 64.1534C171.098 64.1534 171.533 64.2514 171.913 64.4474C172.297 64.6406 172.609 64.9105 172.851 65.2571C173.092 65.6037 173.249 66.0028 173.32 66.4545H172.28C172.183 66.0625 171.996 65.7372 171.717 65.4787C171.439 65.2202 171.07 65.0909 170.609 65.0909C169.933 65.0909 169.401 65.3849 169.011 65.973C168.625 66.5611 168.43 67.3864 168.428 68.4489H168.496C168.655 68.2074 168.844 68.0014 169.062 67.831C169.284 67.6577 169.528 67.5241 169.795 67.4304C170.063 67.3366 170.345 67.2898 170.643 67.2898C171.143 67.2898 171.601 67.4148 172.016 67.6648C172.43 67.9119 172.763 68.2543 173.013 68.6918C173.263 69.1264 173.388 69.625 173.388 70.1875C173.388 70.7273 173.267 71.2216 173.026 71.6705C172.784 72.1165 172.445 72.4716 172.007 72.7358C171.572 72.9972 171.061 73.125 170.473 73.1193ZM170.473 72.1818C170.831 72.1818 171.152 72.0923 171.436 71.9134C171.723 71.7344 171.949 71.4943 172.114 71.1932C172.281 70.892 172.365 70.5568 172.365 70.1875C172.365 69.8267 172.284 69.4986 172.122 69.2031C171.963 68.9048 171.743 68.6676 171.462 68.4915C171.183 68.3153 170.865 68.2273 170.507 68.2273C170.237 68.2273 169.986 68.2812 169.753 68.3892C169.52 68.4943 169.315 68.6392 169.139 68.8239C168.966 69.0085 168.83 69.2202 168.73 69.4588C168.631 69.6946 168.581 69.9432 168.581 70.2045C168.581 70.5511 168.662 70.875 168.824 71.1761C168.989 71.4773 169.213 71.7202 169.497 71.9048C169.784 72.0895 170.109 72.1818 170.473 72.1818ZM174.859 71.2102V70.3409L178.694 64.2727H179.325V65.6193H178.899L176.001 70.2045V70.2727H181.166V71.2102H174.859ZM178.967 73V70.946V70.5412V64.2727H179.973V73H178.967ZM185.712 73.1193C185.149 73.1193 184.648 73.0227 184.207 72.8295C183.77 72.6364 183.422 72.3679 183.163 72.0241C182.908 71.6776 182.768 71.2756 182.746 70.8182H183.82C183.842 71.0994 183.939 71.3423 184.109 71.5469C184.28 71.7486 184.503 71.9048 184.778 72.0156C185.054 72.1264 185.359 72.1818 185.695 72.1818C186.07 72.1818 186.402 72.1165 186.692 71.9858C186.982 71.8551 187.209 71.6733 187.374 71.4403C187.538 71.2074 187.621 70.9375 187.621 70.6307C187.621 70.3097 187.541 70.027 187.382 69.7827C187.223 69.5355 186.99 69.3423 186.683 69.2031C186.376 69.0639 186.001 68.9943 185.558 68.9943H184.859V68.0568H185.558C185.905 68.0568 186.209 67.9943 186.47 67.8693C186.734 67.7443 186.94 67.5682 187.088 67.3409C187.239 67.1136 187.314 66.8466 187.314 66.5398C187.314 66.2443 187.249 65.9872 187.118 65.7685C186.987 65.5497 186.803 65.3793 186.564 65.2571C186.328 65.1349 186.05 65.0739 185.729 65.0739C185.428 65.0739 185.143 65.1293 184.876 65.2401C184.612 65.348 184.396 65.5057 184.229 65.7131C184.061 65.9176 183.97 66.1648 183.956 66.4545H182.933C182.95 65.9972 183.088 65.5966 183.347 65.2528C183.605 64.9062 183.943 64.6364 184.361 64.4432C184.781 64.25 185.243 64.1534 185.746 64.1534C186.286 64.1534 186.749 64.2628 187.135 64.4815C187.521 64.6974 187.818 64.983 188.026 65.3381C188.233 65.6932 188.337 66.0767 188.337 66.4886C188.337 66.9801 188.207 67.3991 187.949 67.7457C187.693 68.0923 187.345 68.3324 186.905 68.4659V68.5341C187.456 68.625 187.886 68.8594 188.196 69.2372C188.506 69.6122 188.661 70.0767 188.661 70.6307C188.661 71.1051 188.531 71.5312 188.273 71.9091C188.017 72.2841 187.668 72.5795 187.224 72.7955C186.781 73.0114 186.277 73.1193 185.712 73.1193Z" fill="#6B7280"/>
<path fill-rule="evenodd" clip-rule="evenodd" d="M469.849 53.033L463.858 47.0421L464.708 46.1896L471.125 52.6095V53.4592L464.708 59.875L463.858 59.0239L469.849 53.033Z" fill="#6B7280"/>
</svg>
